<?xml version="1.0" encoding="UTF-8" standalone="no"?>
<!-- Created with Inkscape (http://www.inkscape.org/) -->

<svg
   width="24mm"
   height="18mm"
   viewBox="0 0 24 18"
   version="1.1"
   id="svg1"
   xml:space="preserve"
   inkscape:version="1.4.2 (f4327f4, 2025-05-13)"
   sodipodi:docname="logo.svg"
   xmlns:inkscape="http://www.inkscape.org/namespaces/inkscape"
   xmlns:sodipodi="http://sodipodi.sourceforge.net/DTD/sodipodi-0.dtd"
   xmlns="http://www.w3.org/2000/svg"
   xmlns:svg="http://www.w3.org/2000/svg"><sodipodi:namedview
     id="namedview1"
     pagecolor="#ffffff"
     bordercolor="#000000"
     borderopacity="0.25"
     inkscape:showpageshadow="2"
     inkscape:pageopacity="0.0"
     inkscape:pagecheckerboard="0"
     inkscape:deskcolor="#d1d1d1"
     inkscape:document-units="mm"
     inkscape:zoom="2.8284271"
     inkscape:cx="80.610173"
     inkscape:cy="136.82516"
     inkscape:window-width="1920"
     inkscape:window-height="1010"
     inkscape:window-x="-6"
     inkscape:window-y="-6"
     inkscape:window-maximized="1"
     inkscape:current-layer="g2" /><defs
     id="defs1"><marker
       id="DistanceX"
       orient="auto"
       refX="0"
       refY="0"
       style="overflow:visible"><path
         d="M 3,-3 -3,3 M 0,-5 V 5"
         style="stroke:#000000;stroke-width:0.5"
         id="path1" /></marker><pattern
       id="Hatch"
       patternUnits="userSpaceOnUse"
       width="8"
       height="8"
       x="0"
       y="0"><path
         d="M8 4 l-4,4"
         stroke="#000000"
         stroke-width="0.25"
         linecap="square"
         id="path2" /><path
         d="M6 2 l-4,4"
         stroke="#000000"
         stroke-width="0.25"
         linecap="square"
         id="path3" /><path
         d="M4 0 l-4,4"
         stroke="#000000"
         stroke-width="0.25"
         linecap="square"
         id="path4" /></pattern><symbol
       id="*MODEL_SPACE" /><symbol
       id="*PAPER_SPACE" /><marker
       id="DistanceX-3"
       orient="auto"
       refX="0"
       refY="0"
       style="overflow:visible"><path
         d="M 3,-3 -3,3 M 0,-5 V 5"
         style="stroke:#000000;stroke-width:0.5"
         id="path1-0" /></marker><pattern
       id="Hatch-1"
       patternUnits="userSpaceOnUse"
       width="8"
       height="8"
       x="0"
       y="0"><path
         d="M8 4 l-4,4"
         stroke="#000000"
         stroke-width="0.25"
         linecap="square"
         id="path2-9" /><path
         d="M6 2 l-4,4"
         stroke="#000000"
         stroke-width="0.25"
         linecap="square"
         id="path3-0" /><path
         d="M4 0 l-4,4"
         stroke="#000000"
         stroke-width="0.25"
         linecap="square"
         id="path4-4" /></pattern><symbol
       id="*MODEL_SPACE-2" /><symbol
       id="*PAPER_SPACE-1" /><marker
       id="DistanceX-9"
       orient="auto"
       refX="0"
       refY="0"
       style="overflow:visible"><path
         d="M 3,-3 -3,3 M 0,-5 V 5"
         style="stroke:#000000;stroke-width:0.5"
         id="path1-8" /></marker><pattern
       id="Hatch-6"
       patternUnits="userSpaceOnUse"
       width="8"
       height="8"
       x="0"
       y="0"><path
         d="M8 4 l-4,4"
         stroke="#000000"
         stroke-width="0.25"
         linecap="square"
         id="path2-4" /><path
         d="M6 2 l-4,4"
         stroke="#000000"
         stroke-width="0.25"
         linecap="square"
         id="path3-5" /><path
         d="M4 0 l-4,4"
         stroke="#000000"
         stroke-width="0.25"
         linecap="square"
         id="path4-7" /></pattern><symbol
       id="*MODEL_SPACE-7" /><symbol
       id="*PAPER_SPACE-6" /><clipPath
       clipPathUnits="userSpaceOnUse"
       id="clipPath5"><g
         inkscape:label="Clip"
         id="use5"
         style="fill:none;stroke:#ff0000;stroke-width:0.00133333;stroke-linecap:round;stroke-linejoin:round;stroke-dasharray:none;stroke-opacity:1"><path
           d="m 626.41961,1466.9306 -201.12156,-77.2033 a 11.338583,11.338583 0 0 1 -6.5221,-14.6489 l 13.27373,-34.5792 a 11.338583,11.338583 0 0 1 14.64886,-6.5221 l 201.12156,77.2033 a 11.338583,11.338583 0 0 1 6.5221,14.6489 l -0.54179,1.4114 a 11.338583,11.338583 0 0 1 -14.64886,6.5221 l -187.71329,-72.0564 -4.06339,10.5855 187.71329,72.0564 a 11.338583,11.338583 0 0 1 6.5221,14.6488 l -0.54178,1.4114 a 11.338583,11.338583 0 0 1 -14.64887,6.5221 z"
           style="fill:none;stroke:#ff0000;stroke-width:0.00133333;stroke-linecap:round;stroke-linejoin:round;stroke-dasharray:none;stroke-opacity:1"
           id="path26"
           transform="translate(0,-2.1558228e-5)" /><path
           d="m 372.95188,1333.1955 a 11.338585,11.338585 0 0 0 -22.67717,0 11.338585,11.338585 0 0 0 22.67717,0 z"
           style="fill:none;stroke:#ff0000;stroke-width:0.00133333;stroke-linecap:round;stroke-linejoin:round;stroke-dasharray:none;stroke-opacity:1"
           id="path27"
           transform="translate(0,-2.1558228e-5)" /><path
           d="m 158.42352,1457.0509 a 5.29134,5.29134 0 0 0 -10.58268,0 5.29134,5.29134 0 0 0 10.58268,0 z"
           style="fill:none;stroke:#ff0000;stroke-width:0.00133333;stroke-linecap:round;stroke-linejoin:round;stroke-dasharray:none;stroke-opacity:1"
           id="path28"
           transform="translate(0,-2.1558228e-5)" /><path
           d="m 209.81654,1340.8286 a 5.29134,5.29134 0 0 0 -10.58268,0 5.29134,5.29134 0 0 0 10.58268,0 z"
           style="fill:none;stroke:#ff0000;stroke-width:0.00133333;stroke-linecap:round;stroke-linejoin:round;stroke-dasharray:none;stroke-opacity:1"
           id="path29"
           transform="translate(0,-2.1558228e-5)" /><path
           d="m 510.49656,1190.6068 201.12156,77.2034 a 11.338583,11.338583 0 0 1 6.52209,14.6488 l -13.27372,34.5793 a 11.338583,11.338583 0 0 1 -14.64886,6.5221 L 489.09606,1246.357 a 11.338583,11.338583 0 0 1 -6.52209,-14.6488 l 0.54178,-1.4114 a 11.338583,11.338583 0 0 1 14.64887,-6.5221 l 187.71329,72.0563 4.06338,-10.5854 -187.71329,-72.0564 a 11.338583,11.338583 0 0 1 -6.52209,-14.6489 l 0.54178,-1.4114 a 11.338583,11.338583 0 0 1 14.64887,-6.5221 z"
           style="fill:none;stroke:#ff0000;stroke-width:0.00133333;stroke-linecap:round;stroke-linejoin:round;stroke-dasharray:none;stroke-opacity:1"
           id="path30"
           transform="translate(0,-2.1558228e-5)" /><path
           d="m 786.64145,1324.342 a 11.338583,11.338583 0 0 0 -22.67716,0 11.338583,11.338583 0 0 0 22.67716,0 z"
           style="fill:none;stroke:#ff0000;stroke-width:0.00133333;stroke-linecap:round;stroke-linejoin:round;stroke-dasharray:none;stroke-opacity:1"
           id="path31"
           transform="translate(0,-2.1558228e-5)" /><path
           d="m 989.07533,1200.4866 a 5.29134,5.29134 0 0 0 -10.58268,0 5.29134,5.29134 0 0 0 10.58268,0 z"
           style="fill:none;stroke:#ff0000;stroke-width:0.00133333;stroke-linecap:round;stroke-linejoin:round;stroke-dasharray:none;stroke-opacity:1"
           id="path32"
           transform="translate(0,-2.1558228e-5)" /><path
           d="m 937.68231,1316.7089 a 5.29134,5.29134 0 0 0 -10.58268,0 5.29134,5.29134 0 0 0 10.58268,0 z"
           style="fill:none;stroke:#ff0000;stroke-width:0.00133333;stroke-linecap:round;stroke-linejoin:round;stroke-dasharray:none;stroke-opacity:1"
           id="path33"
           transform="translate(0,-2.1558228e-5)" /></g></clipPath><marker
       id="DistanceX-0"
       orient="auto"
       refX="0"
       refY="0"
       style="overflow:visible"><path
         d="M 3,-3 -3,3 M 0,-5 V 5"
         style="stroke:#000000;stroke-width:0.5"
         id="path1-5" /></marker><pattern
       id="Hatch-2"
       patternUnits="userSpaceOnUse"
       width="8"
       height="8"
       x="0"
       y="0"><path
         d="M8 4 l-4,4"
         stroke="#000000"
         stroke-width="0.25"
         linecap="square"
         id="path2-8" /><path
         d="M6 2 l-4,4"
         stroke="#000000"
         stroke-width="0.25"
         linecap="square"
         id="path3-04" /><path
         d="M4 0 l-4,4"
         stroke="#000000"
         stroke-width="0.25"
         linecap="square"
         id="path4-9" /></pattern><symbol
       id="*MODEL_SPACE-0" /><symbol
       id="*PAPER_SPACE-17" /><marker
       id="DistanceX-4"
       orient="auto"
       refX="0"
       refY="0"
       style="overflow:visible"><path
         d="M 3,-3 -3,3 M 0,-5 V 5"
         style="stroke:#000000;stroke-width:0.5"
         id="path1-4" /></marker><pattern
       id="Hatch-29"
       patternUnits="userSpaceOnUse"
       width="8"
       height="8"
       x="0"
       y="0"><path
         d="M8 4 l-4,4"
         stroke="#000000"
         stroke-width="0.25"
         linecap="square"
         id="path2-2" /><path
         d="M6 2 l-4,4"
         stroke="#000000"
         stroke-width="0.25"
         linecap="square"
         id="path3-3" /><path
         d="M4 0 l-4,4"
         stroke="#000000"
         stroke-width="0.25"
         linecap="square"
         id="path4-49" /></pattern><symbol
       id="*MODEL_SPACE-71" /><symbol
       id="*PAPER_SPACE-9" /><marker
       id="DistanceX-02"
       orient="auto"
       refX="0"
       refY="0"
       style="overflow:visible"><path
         d="M 3,-3 -3,3 M 0,-5 V 5"
         style="stroke:#000000;stroke-width:0.5"
         id="path1-06" /></marker><pattern
       id="Hatch-26"
       patternUnits="userSpaceOnUse"
       width="8"
       height="8"
       x="0"
       y="0"><path
         d="M8 4 l-4,4"
         stroke="#000000"
         stroke-width="0.25"
         linecap="square"
         id="path2-24" /><path
         d="M6 2 l-4,4"
         stroke="#000000"
         stroke-width="0.25"
         linecap="square"
         id="path3-07" /><path
         d="M4 0 l-4,4"
         stroke="#000000"
         stroke-width="0.25"
         linecap="square"
         id="path4-6" /></pattern><symbol
       id="*MODEL_SPACE-9" /><symbol
       id="*PAPER_SPACE-8" /><marker
       id="DistanceX-6"
       orient="auto"
       refX="0"
       refY="0"
       style="overflow:visible"><path
         d="M 3,-3 -3,3 M 0,-5 V 5"
         style="stroke:#000000;stroke-width:0.5"
         id="path1-01" /></marker><pattern
       id="Hatch-8"
       patternUnits="userSpaceOnUse"
       width="8"
       height="8"
       x="0"
       y="0"><path
         d="M8 4 l-4,4"
         stroke="#000000"
         stroke-width="0.25"
         linecap="square"
         id="path2-1" /><path
         d="M6 2 l-4,4"
         stroke="#000000"
         stroke-width="0.25"
         linecap="square"
         id="path3-7" /><path
         d="M4 0 l-4,4"
         stroke="#000000"
         stroke-width="0.25"
         linecap="square"
         id="path4-1" /></pattern><symbol
       id="*MODEL_SPACE-5" /><symbol
       id="*PAPER_SPACE-2" /><marker
       id="DistanceX-09"
       orient="auto"
       refX="0"
       refY="0"
       style="overflow:visible"><path
         d="M 3,-3 -3,3 M 0,-5 V 5"
         style="stroke:#000000;stroke-width:0.5"
         id="path1-48" /></marker><pattern
       id="Hatch-82"
       patternUnits="userSpaceOnUse"
       width="8"
       height="8"
       x="0"
       y="0"><path
         d="M8 4 l-4,4"
         stroke="#000000"
         stroke-width="0.25"
         linecap="square"
         id="path2-45" /><path
         d="M6 2 l-4,4"
         stroke="#000000"
         stroke-width="0.25"
         linecap="square"
         id="path3-51" /><path
         d="M4 0 l-4,4"
         stroke="#000000"
         stroke-width="0.25"
         linecap="square"
         id="path4-71" /></pattern><symbol
       id="*MODEL_SPACE-1" /><symbol
       id="*PAPER_SPACE-5" /><marker
       id="DistanceX-094"
       orient="auto"
       refX="0"
       refY="0"
       style="overflow:visible"><path
         d="M 3,-3 -3,3 M 0,-5 V 5"
         style="stroke:#000000;stroke-width:0.5"
         id="path1-88" /></marker><pattern
       id="Hatch-24"
       patternUnits="userSpaceOnUse"
       width="8"
       height="8"
       x="0"
       y="0"><path
         d="M8 4 l-4,4"
         stroke="#000000"
         stroke-width="0.25"
         linecap="square"
         id="path2-5" /><path
         d="M6 2 l-4,4"
         stroke="#000000"
         stroke-width="0.25"
         linecap="square"
         id="path3-517" /><path
         d="M4 0 l-4,4"
         stroke="#000000"
         stroke-width="0.25"
         linecap="square"
         id="path4-11" /></pattern><symbol
       id="*MODEL_SPACE-52" /><symbol
       id="*PAPER_SPACE-7" /><marker
       id="DistanceX-0948"
       orient="auto"
       refX="0"
       refY="0"
       style="overflow:visible"><path
         d="M 3,-3 -3,3 M 0,-5 V 5"
         style="stroke:#000000;stroke-width:0.5"
         id="path1-82" /></marker><pattern
       id="Hatch-4"
       patternUnits="userSpaceOnUse"
       width="8"
       height="8"
       x="0"
       y="0"><path
         d="M8 4 l-4,4"
         stroke="#000000"
         stroke-width="0.25"
         linecap="square"
         id="path2-55" /><path
         d="M6 2 l-4,4"
         stroke="#000000"
         stroke-width="0.25"
         linecap="square"
         id="path3-1" /><path
         d="M4 0 l-4,4"
         stroke="#000000"
         stroke-width="0.25"
         linecap="square"
         id="path4-711" /></pattern><symbol
       id="*MODEL_SPACE-527" /><symbol
       id="*PAPER_SPACE-61" /><marker
       id="DistanceX-09488"
       orient="auto"
       refX="0"
       refY="0"
       style="overflow:visible"><path
         d="M 3,-3 -3,3 M 0,-5 V 5"
         style="stroke:#000000;stroke-width:0.5"
         id="path1-2" /></marker><pattern
       id="Hatch-45"
       patternUnits="userSpaceOnUse"
       width="8"
       height="8"
       x="0"
       y="0"><path
         d="M8 4 l-4,4"
         stroke="#000000"
         stroke-width="0.25"
         linecap="square"
         id="path2-51" /><path
         d="M6 2 l-4,4"
         stroke="#000000"
         stroke-width="0.25"
         linecap="square"
         id="path3-71" /><path
         d="M4 0 l-4,4"
         stroke="#000000"
         stroke-width="0.25"
         linecap="square"
         id="path4-15" /></pattern><symbol
       id="*MODEL_SPACE-27" /><symbol
       id="*PAPER_SPACE-614" /><marker
       id="DistanceX-094882"
       orient="auto"
       refX="0"
       refY="0"
       style="overflow:visible"><path
         d="M 3,-3 -3,3 M 0,-5 V 5"
         style="stroke:#000000;stroke-width:0.5"
         id="path1-45" /></marker><pattern
       id="Hatch-5"
       patternUnits="userSpaceOnUse"
       width="8"
       height="8"
       x="0"
       y="0"><path
         d="M8 4 l-4,4"
         stroke="#000000"
         stroke-width="0.25"
         linecap="square"
         id="path2-17" /><path
         d="M6 2 l-4,4"
         stroke="#000000"
         stroke-width="0.25"
         linecap="square"
         id="path3-11" /><path
         d="M4 0 l-4,4"
         stroke="#000000"
         stroke-width="0.25"
         linecap="square"
         id="path4-5" /></pattern><symbol
       id="*MODEL_SPACE-276" /><symbol
       id="*PAPER_SPACE-14" /><marker
       id="DistanceX-0948824"
       orient="auto"
       refX="0"
       refY="0"
       style="overflow:visible"><path
         d="M 3,-3 -3,3 M 0,-5 V 5"
         style="stroke:#000000;stroke-width:0.5"
         id="path1-55" /></marker><pattern
       id="Hatch-17"
       patternUnits="userSpaceOnUse"
       width="8"
       height="8"
       x="0"
       y="0"><path
         d="M8 4 l-4,4"
         stroke="#000000"
         stroke-width="0.25"
         linecap="square"
         id="path2-11" /><path
         d="M6 2 l-4,4"
         stroke="#000000"
         stroke-width="0.25"
         linecap="square"
         id="path3-52" /><path
         d="M4 0 l-4,4"
         stroke="#000000"
         stroke-width="0.25"
         linecap="square"
         id="path4-76" /></pattern><symbol
       id="*MODEL_SPACE-14" /><symbol
       id="*PAPER_SPACE-23" /></defs><g
     inkscape:label="Layer 1"
     inkscape:groupmode="layer"
     id="layer1"><g
       id="g2"
       inkscape:label="draw1"
       transform="translate(11.340808,13.926625)"
       style="display:inline;fill:#000000;fill-opacity:1;stroke:none"><g
         id="g894-6-5-4-1-3-3"
         inkscape:label="crave_logo(infillOnly)"
         style="display:inline;fill:#000000;fill-opacity:1;stroke:none;stroke-width:0.377953;stroke-linecap:round;stroke-linejoin:round;stroke-dasharray:none;stroke-opacity:1"
         transform="matrix(0.09196429,0.24743868,-0.24916176,0.0953334,50.966573,-116.63482)"><path
           style="fill:#000000;fill-opacity:1;fill-rule:evenodd;stroke:none;stroke-width:0.377953;stroke-linecap:round;stroke-linejoin:round;stroke-dasharray:none;stroke-opacity:1"
           d="m 312.7514,304.71883 c -0.0427,-0.19445 -0.0769,-1.90477 -0.0759,-3.8007 10e-4,-2.69551 0.0355,-3.74587 0.15655,-4.81716 0.75919,-6.71619 2.62296,-12.64865 6.24792,-19.88738 0.862,-1.72135 1.19036,-2.34317 2.25538,-4.27108 l 0.33309,-0.60297 0.72264,1.35427 c 1.02762,1.92579 1.97183,3.53146 3.00538,5.11077 0.49312,0.75351 0.92224,1.41189 0.95361,1.46308 0.0314,0.0512 -0.26442,0.4887 -0.6573,0.97227 -2.04261,2.51409 -4.57064,6.16604 -6.20715,8.96675 -0.46869,0.80212 -1.30542,2.37322 -1.85939,3.49134 -1.88958,3.81386 -3.11926,6.97442 -4.72851,12.15339 -0.0643,0.20698 -0.0736,0.19859 -0.14628,-0.13258 z"
           id="path882-7-5-3-7-3-7" /><path
           style="fill:#000000;fill-opacity:1;fill-rule:evenodd;stroke:none;stroke-width:0.377953;stroke-linecap:round;stroke-linejoin:round;stroke-dasharray:none;stroke-opacity:1"
           d="m 319.83262,326.31107 c -0.0789,-0.63135 0.0923,-4.99076 0.27116,-6.90229 0.82447,-8.81381 3.59935,-17.88615 8.66735,-28.33751 0.50457,-1.04055 0.91741,-1.92554 0.91741,-1.96664 0,-0.41571 -1.22456,1.20445 -3.58226,4.73952 -3.95934,5.93656 -6.60367,11.27693 -8.75412,17.67948 -0.52297,1.55701 -0.52364,1.55609 -0.38833,-0.53073 0.74767,-11.5306 3.33,-20.45536 8.52872,-29.47601 0.9479,-1.64476 1.10766,-1.88803 1.18212,-1.80002 0.0356,0.0421 0.33924,0.45431 0.67482,0.91614 3.26388,4.49177 7.71939,9.09138 12.12806,12.52032 0.59552,0.46317 1.07995,0.86841 1.07651,0.90052 -0.003,0.0321 -0.84383,0.8141 -1.86754,1.73776 -3.30194,2.97922 -5.40279,5.15749 -7.43359,7.70756 -4.73785,5.94927 -8.35085,13.15973 -10.8863,21.72576 l -0.47091,1.59099 z"
           id="path883-0-5-4-5-7-8" /><path
           style="fill:#000000;fill-opacity:1;fill-rule:evenodd;stroke:none;stroke-width:0.377953;stroke-linecap:round;stroke-linejoin:round;stroke-dasharray:none;stroke-opacity:1"
           d="m 321.73359,325.7293 c 0,-0.16078 1.32936,-3.0086 2.23653,-4.79121 2.17383,-4.2716 4.88435,-8.60936 8.22673,-13.16558 0.65803,-0.897 1.59065,-2.09024 2.0725,-2.65165 0.972,-1.13249 8.8254,-9.19667 8.95628,-9.19667 0.0455,0 0.38501,0.204 0.75449,0.45332 0.36949,0.24933 0.93448,0.57661 1.25555,0.72729 0.52951,0.24851 0.66586,0.27414 1.46763,0.27588 0.78466,0.002 0.93809,-0.0249 1.36682,-0.23699 0.26561,-0.13139 0.49785,-0.22398 0.51609,-0.20574 0.0552,0.0552 -1.89735,2.91201 -2.92837,4.28452 -1.80635,2.40466 -3.65853,4.56151 -5.62058,6.54512 -1.79734,1.81709 -3.01044,2.8209 -5.75253,4.76004 -3.32315,2.35007 -7.15307,6.3456 -11.73355,12.24093 -0.44967,0.57876 -0.81759,1.01109 -0.81759,0.96074 z"
           id="path884-6-4-5-3-6-9" /><path
           style="fill:#000000;fill-opacity:1;fill-rule:evenodd;stroke:none;stroke-width:0.377953;stroke-linecap:round;stroke-linejoin:round;stroke-dasharray:none;stroke-opacity:1"
           d="m 317.98457,360.88633 c -1.84,-0.28992 -3.36534,-0.96661 -6.39021,-2.83491 -3.86924,-2.38981 -7.14533,-5.10854 -9.78703,-8.12195 -3.02635,-3.45218 -5.19631,-7.23273 -6.36876,-11.0958 -0.88568,-2.91821 -1.22808,-5.38267 -1.2276,-8.83577 3.6e-4,-2.55698 0.079,-3.51839 0.61683,-7.54129 0.67152,-5.02281 1.26315,-7.74341 2.56682,-11.80331 0.55694,-1.73442 2.22659,-6.11322 2.23871,-5.87121 0.002,0.0348 -0.0951,0.71096 -0.21511,1.5026 -0.52075,3.43376 -1.02704,8.06203 -1.28871,11.78078 -0.15328,2.17837 -0.20523,7.49638 -0.0932,9.54594 0.37124,6.79479 1.63204,12.10144 4.03201,16.97057 1.9975,4.05258 3.77809,6.07367 7.55611,8.5767 1.92006,1.27208 3.99116,2.43647 4.91597,2.76381 0.89249,0.3159 1.27122,0.41533 1.27122,0.33374 0,-0.031 -0.21661,-0.50267 -0.48135,-1.04815 -1.91638,-3.94848 -2.01997,-7.5526 -0.34706,-12.0749 0.37323,-1.00895 1.60411,-3.5944 1.67667,-3.52184 0.0279,0.0279 -0.012,0.4219 -0.0888,0.87552 -0.56638,3.34777 -0.39843,6.26436 0.52668,9.1463 0.31064,0.96771 0.50292,1.36511 0.60913,1.2589 0.0295,-0.0295 0.15501,-0.70558 0.27897,-1.50246 0.52837,-3.39682 1.34475,-6.76597 2.41784,-9.97834 2.19824,-6.58056 5.27983,-11.98095 9.97563,-17.48196 1.52616,-1.78786 5.26516,-5.50678 7.39676,-7.35703 0.97228,-0.84394 2.21329,-1.98464 2.7578,-2.53488 2.4341,-2.4597 5.64578,-6.74134 7.89041,-10.51908 0.41045,-0.69079 0.7618,-1.24045 0.78078,-1.22147 0.0651,0.0651 -0.87915,3.36206 -1.48406,5.18155 -0.79794,2.40012 -1.50879,4.15332 -2.56996,6.3384 -2.55111,5.25305 -5.11968,8.53057 -10.60114,13.52717 -4.975,4.53493 -6.41247,6.07727 -8.21264,8.81174 -2.71447,4.12331 -4.32144,8.77401 -5.28236,15.28764 -0.32862,2.22756 -0.34353,4.44821 -0.0395,5.87782 0.27197,1.27875 0.81148,2.86052 1.37872,4.04224 0.26211,0.54606 0.44568,1.01192 0.40793,1.03526 -0.0378,0.0233 -0.56393,0.14271 -1.16929,0.26528 -1.22985,0.24901 -2.85174,0.34788 -3.64821,0.22239 z"
           id="path885-2-9-1-1-8-3" /><path
           style="fill:#000000;fill-opacity:1;fill-rule:evenodd;stroke:none;stroke-width:0.377953;stroke-linecap:round;stroke-linejoin:round;stroke-dasharray:none;stroke-opacity:1"
           d="m 309.18244,343.96978 c 0,-0.0311 0.1,-0.25389 0.22218,-0.49503 0.39103,-0.77167 0.57526,-1.76105 0.57559,-3.09122 3.8e-4,-1.51563 -0.17997,-2.62268 -0.96955,-5.95122 -1.04825,-4.41897 -1.26773,-5.82877 -1.26831,-8.14672 -7.1e-4,-2.85838 0.51707,-4.86185 1.75116,-6.77586 0.46277,-0.71773 1.81823,-2.48221 1.86834,-2.4321 0.0175,0.0175 -0.12355,0.36805 -0.31341,0.77901 -0.46107,0.99797 -0.84935,2.17784 -1.07955,3.28041 -0.21994,1.05343 -0.26413,2.93679 -0.0907,3.86691 0.28204,1.51276 0.94879,3.02617 2.24718,5.10076 1.25776,2.00967 1.73623,3.16206 1.91155,4.60405 0.31352,2.57847 -0.93712,5.91168 -2.98735,7.9619 -0.6531,0.6531 -1.86711,1.49779 -1.86711,1.29911 z"
           id="path886-7-0-2-9-7-8" /><path
           d="m 229.22492,46.574109 q -0.019,0.04949 -0.0719,0.05268 -0.0504,0.0041 -0.13329,-0.02769 -0.0545,-0.0209 -0.1875,-0.09873 -0.13069,-0.07694 -0.34116,-0.20782 l -0.16724,-0.02411 q -0.0454,-0.04423 -0.10994,-0.09564 -0.0644,-0.0515 -0.14529,-0.102564 -0.0904,-0.06149 -0.15128,-0.108184 -0.062,-0.04379 -0.0978,-0.0777 -0.0644,-0.0515 -0.12052,-0.09637 -0.0548,-0.04107 -0.11301,-0.07347 -0.14128,-0.07767 -0.2628,-0.16436 -0.12025,-0.08289 -0.22208,-0.185484 -0.0755,-0.07242 -0.2985,-0.248227 -0.22419,-0.172904 -0.5902,-0.450396 -0.16449,-0.123318 -0.23222,-0.222789 -0.0678,-0.09947 -0.0387,-0.175237 0.0145,-0.0379 0.0354,-0.0499 0.0209,-0.01201 0.0587,-0.0043 0.0128,0.0017 0.0271,0.0072 0.0131,0.0082 0.0817,0.03459 0.0272,0.0072 0.0587,0.0025 l 0.16225,0.128962 q 0.0318,0.009 0.0719,0.01086 0.0829,0.03178 0.31474,0.177552 0.23312,0.149657 0.61993,0.40833 0.12624,0.08852 0.27962,0.184207 0.0284,0.0109 0.0424,0.0098 0.014,-0.0011 0.0208,-0.0188 6.4e-4,-0.03657 0.001,-0.07608 l 0.0562,-0.06193 q 0.002,-0.01926 -0.0171,-0.09008 -0.0176,-0.067 -0.007,-0.09317 0.0212,-0.05537 0.0767,-0.157677 0.0567,-0.09851 0.077,-0.150942 0.0246,-0.06405 0.0242,-0.147806 0.002,-0.08284 -0.0221,-0.182382 0.036,-0.143263 0.0395,-0.265576 0.004,-0.118468 -0.0208,-0.221841 -0.0106,-0.05078 -0.0231,-0.109193 -0.007,-0.02974 -0.10499,-0.08033 -0.0961,-0.04656 -0.27135,-0.113765 -0.16094,-0.06176 -0.24454,-0.0704 -0.0835,-0.0087 -0.0992,0.03208 -0.01,0.02623 -0.009,0.05021 0.004,0.02499 0.0165,0.0631 0.0102,0.02382 0.0175,0.05351 0.0103,0.0306 0.0233,0.05245 l -0.006,0.0242 q -0.006,0.02133 -0.0207,0.0255 -0.0162,0.0072 -0.04,-0.0019 -0.041,-0.04911 -0.0723,-0.09459 -0.0326,-0.04259 -0.0531,-0.07385 -0.0766,-0.132971 -0.15193,-0.262156 -0.0367,-0.07428 -0.0394,-0.15887 -0.003,-0.08462 0.0342,-0.180759 0.0302,-0.0786 0.21861,-0.05313 0.18733,0.02841 0.53054,0.160104 0.13255,0.05087 0.23743,0.06767 0.10727,0.01771 0.19615,-0.0017 0.0782,-0.02007 0.13235,-0.01939 0.0541,7.79e-4 0.0871,0.01342 0.0259,0.01 0.0536,0.03728 0.0264,0.03017 0.0473,0.07491 0.0233,0.05244 0.0392,0.08187 0.0172,0.03333 0.0326,0.04257 0.0311,0.03199 0.0871,0.07017 0.0548,0.04108 0.12747,0.0924 0.0479,0.03834 0.14156,0.09106 0.0938,0.05271 0.23124,0.112092 0.25958,0.116356 0.37897,0.215624 0.11942,0.09927 0.14878,0.100577 l 0.0659,0.0052 q 0.0475,0.02466 0.12112,0.06651 0.0737,0.04164 0.16761,0.101054 0.004,0.03168 0.0179,0.0737 0.0161,0.04292 0.0429,0.09338 -0.0155,0.224601 -0.0223,0.242084 -0.0403,0.104865 -0.10533,0.140037 -0.065,0.0352 -0.14795,0.0034 -0.0237,-0.0091 -0.0596,-0.04289 -0.037,-0.03092 -0.092,-0.07878 -0.0445,-0.04712 -0.17883,-0.135462 -0.13558,-0.08546 -0.35062,-0.211456 -0.15562,-0.08982 -0.29009,-0.178151 -0.13319,-0.08454 -0.24299,-0.173476 -0.0144,-0.01196 -0.0369,-0.02385 -0.0354,-0.01364 -0.0576,-0.0054 -0.0198,0.0092 -0.031,0.03824 -0.0342,0.110489 -0.0606,0.200609 -0.0111,0.02914 -0.025,0.220966 l -0.086,0.224291 q -0.0178,0.04658 -0.0444,0.136724 -0.0252,0.09392 -0.042,0.137615 -0.0157,0.0408 -0.0634,0.115983 -0.0466,0.07905 -0.0645,0.125639 -0.0134,0.03491 -0.0252,0.09392 -0.0118,0.059 -0.0182,0.146706 -0.0145,0.03789 -0.0174,0.06676 -0.003,0.02895 0.0115,0.03439 0.0251,0.02637 0.0634,0.06109 0.0372,0.0377 0.0884,0.08076 0.0524,0.02649 0.12459,0.06451 0.0712,0.04073 0.16635,0.09725 0.17368,0.113465 0.28771,0.177244 0.11286,0.06678 0.16257,0.08586 0.0191,0.0073 0.0377,0.008 0.0187,7.03e-4 0.0339,-0.01039 0.0303,-0.01516 0.0722,-0.03249 0.0397,0.03861 0.0565,0.07184 0.0571,0.09882 0.0937,0.166288 0.039,0.06838 0.0514,0.106597 0.0224,0.06203 0.0357,0.140666 0.0148,0.08245 0.0174,0.187292 z m -2.39703,-0.886441 q 0.0293,0.0015 0.0459,0.008 0.0175,0.0035 0.0294,0.0079 0.0781,0.02996 0.1236,0.0742 0.0477,0.04515 0.0678,0.106258 0.005,0.01528 0.007,0.06914 -1.9e-4,0.05675 -0.005,0.145444 0.001,0.06348 0.0166,0.106429 0.0173,0.04672 0.0588,0.06606 0.0299,0.02112 0.0624,0.06406 0.0326,0.04258 0.0689,0.09657 0.009,0.01715 0.13648,0.132601 0.12676,0.115481 0.37528,0.331156 0.0763,0.06274 0.12912,0.11639 0.0528,0.05365 0.09,0.09127 0.16543,0.170382 0.2046,0.252292 0.0404,0.08567 0.0694,0.13025 l 0.0119,0.0046 0.15062,-0.04578 0.063,0.154471 -0.0323,0.154729 q -0.012,0.04553 0.036,0.104048 0.047,0.06152 0.0857,0.179938 -0.004,0.02229 0.003,0.07499 0.008,0.05659 0.0263,0.143766 0.0168,0.07659 0.0191,0.127555 0.002,0.05092 -0.006,0.07428 -0.0302,0.07861 -0.0696,0.103619 -0.0394,0.02491 -0.0819,0.0085 -0.0521,-0.01999 -0.12576,-0.125166 -0.0737,-0.105183 -0.12576,-0.125165 -0.0237,-0.0091 -0.0446,-0.0037 -0.0198,0.0092 -0.0312,0.02474 l -0.28799,0.290516 q -0.0206,0.0255 -0.0959,0.0234 -0.073,-0.0013 -0.19206,-0.03022 -0.1014,-0.01888 -0.16864,-0.03463 -0.0661,-0.01194 -0.1039,-0.02647 -0.094,-0.05951 -0.19026,-0.119822 -0.14373,-0.02174 -0.30387,-0.04314 -0.13296,-0.07105 -0.26949,-0.1469 -0.0143,-0.0055 -0.0281,-0.0043 -0.0128,0.0049 -0.0208,0.0188 -0.0212,0.04859 -0.0493,0.06465 -0.029,0.01897 -0.0621,0.0063 -0.0426,-0.01635 -0.0619,-0.0438 -0.0181,-0.02365 -0.0211,-0.05823 -0.004,-0.04518 -0.01,-0.07388 -0.007,-0.0259 -0.0129,-0.03819 l -0.1613,-0.01842 -0.31599,-0.181354 q -0.0427,-0.01635 -0.10567,-0.05019 -0.063,-0.03383 -0.14376,-0.08526 -0.0527,-0.05365 -0.0897,-0.08458 -0.037,-0.03092 -0.0512,-0.03637 -0.0458,-8.59e-4 -0.0953,-0.0065 -0.0573,-0.04198 -0.11328,-0.08695 -0.0573,-0.04198 -0.11203,-0.08306 -0.0706,-0.06382 -0.0883,-0.130819 -0.0201,-0.0679 0.007,-0.137779 0.0145,-0.03789 0.0509,-0.04735 0.0326,-0.0074 0.0871,0.01341 0.0237,0.0091 0.0654,0.03474 0.0405,0.02894 0.0643,0.03801 0.0167,0.0062 0.0472,0.01165 0.0305,0.0053 0.0518,0.01347 0.0662,0.02543 0.20507,0.0954 0.14006,0.07377 0.21343,0.10193 0.0458,8.59e-4 0.094,0.0028 0.0418,0.02565 0.0855,0.04619 0.0463,0.02097 0.0886,0.03081 l 0.0472,0.06822 0.23467,0.04657 0.0149,-0.01771 q 0.007,-0.01747 0.008,-0.05701 0.003,-0.03565 -0.002,-0.09431 0.005,-0.03867 0.0212,-0.118865 0.0185,-0.07644 0.0631,-0.199705 -0.001,-0.06063 -6.2e-4,-0.113542 0.0138,-0.07158 0.0223,-0.1853 0.0107,-0.11286 0.0195,-0.263197 -8.8e-4,-0.09041 0.005,-0.16471 0.008,-0.0704 0.0248,-0.114135 0.0134,-0.03501 10e-4,-0.06644 -0.0124,-0.03151 -0.047,-0.06152 -0.0346,-0.02293 -0.0874,-0.08366 -0.0541,-0.05745 -0.13215,-0.150968 -0.0216,-0.02165 -0.0681,-0.0629 -0.0466,-0.04124 -0.11703,-0.09836 -0.0241,-0.02927 -0.0625,-0.07077 -0.036,-0.04059 -0.0864,-0.09324 -0.0284,-0.0109 -0.0677,-0.03565 -0.0381,-0.02104 -0.0868,-0.05678 -0.0276,-0.02729 -0.0671,-0.0726 -0.0431,-0.04333 -0.0901,-0.104754 -0.029,-0.03787 -0.0288,-0.08793 -0.002,-0.05092 0.0246,-0.120869 0.019,-0.04949 0.0575,-0.06482 0.0372,-0.01914 0.094,0.0028 0.0615,0.02363 0.13532,0.07197 0.0714,0.04743 0.15152,0.121669 0.10981,0.08893 0.17674,0.148042 0.0669,0.05911 0.10372,0.07652 0.0133,0.01476 0.0492,0.04894 0.0359,0.03381 0.0884,0.08076 0.0492,0.04894 0.11593,0.101254 l 0.0245,-0.0071 0.0239,-0.09771 q 0.0146,-0.03112 0.0392,-0.03841 0.0245,-0.0071 0.0553,0.0045 0.0166,0.0062 0.0333,0.01922 0.019,0.01378 0.043,0.03652 z m 0.0301,1.224505 q -0.0257,0.06703 -0.05,0.208079 -0.0243,0.141065 -0.05,0.208061 -0.0227,0.03808 -0.0431,0.07705 -0.0162,0.07737 -0.0287,0.152732 -0.0103,0.07628 -0.0263,0.153632 -0.007,0.03099 -4e-4,0.05007 0.008,0.02003 0.03,0.02819 0.0731,0.02165 0.0992,0.03163 0.045,0.01727 0.0972,0.04375 0.0536,0.03021 0.10703,0.06784 l 0.11994,0.0059 0.0925,0.04891 q 0.0565,0.0084 0.10489,0.0168 0.0495,0.01256 0.0781,0.02996 0.0116,-0.0019 0.0385,-0.0087 0.0269,-0.0064 0.0573,-0.01477 0.0514,-0.01369 0.0992,-0.03208 0.0492,-0.01459 0.098,-0.0292 0.0607,-0.02354 0.0998,-0.06195 0.0392,-0.03841 0.0582,-0.08795 0.0223,-0.05826 -0.0299,-0.148491 -0.0523,-0.09021 -0.18599,-0.201707 -0.0157,-0.01568 -0.0592,-0.07946 -0.0446,-0.06061 -0.11137,-0.16973 -0.0856,-0.04619 -0.1947,-0.164898 -0.10687,-0.117896 -0.2409,-0.306322 -0.0107,-0.02095 -0.0217,-0.02836 -0.0119,-0.0046 -0.026,-0.01 -0.0167,-0.0062 -0.0294,-0.0015 -0.0116,0.0089 -0.0192,0.02929 -0.0111,0.02914 -0.0311,0.09501 -0.021,0.06887 -0.0321,0.09794 z m 0.44786,4.776976 q -0.0246,0.06405 -0.0689,0.08046 -0.0443,0.01642 -0.10821,-0.0081 -0.12071,-0.04633 -0.21926,-0.100854 -0.0997,-0.05163 -0.16786,-0.11454 -0.085,-0.08276 -0.16877,-0.161699 -0.0824,-0.07516 -0.16866,-0.154907 -0.0235,-0.05914 -0.0391,-0.08189 -0.0475,-0.02466 -0.0914,-0.0518 -0.0178,-0.01007 -0.0265,-0.03696 -0.0102,-0.02381 -0.02,-0.06111 -0.0205,-0.01749 -0.0477,-0.04516 -0.0252,-0.02637 -0.0599,-0.06308 -0.0917,-0.122041 -0.21052,-0.314714 -0.11762,-0.188837 -0.26606,-0.45301 -0.0369,-0.01734 -0.0699,-0.03005 l -0.22145,-0.272109 q -0.12142,-0.143533 -0.23885,-0.262104 -0.11619,-0.114742 -0.23172,-0.195813 -0.0643,-0.04471 -0.10716,-0.07454 -0.0418,-0.02565 -0.0608,-0.03292 -0.0237,-0.0091 -0.0867,0.0067 -0.0608,0.01684 -0.0727,0.01232 -0.0521,-0.01999 -0.069,-0.223636 -0.0183,-0.200714 6.8e-4,-0.240624 0.0239,-0.04097 0.05,-0.08773 0.0227,-0.04477 0.0454,-0.08284 0.0354,-0.05661 0.0689,-0.08055 0.0312,-0.02475 0.062,-0.01297 0.0237,0.0091 0.0845,0.05587 0.094,0.06622 0.16477,0.136712 0.0719,0.0744 0.12296,0.160802 l 0.006,0.01205 q 0.0128,-0.0049 0.0293,-0.0056 0.0153,0.0027 0.0352,1.76e-4 0.037,0.03091 0.0885,0.08076 0.0514,0.04986 0.11518,0.124426 0.0267,0.04366 0.077,0.09641 0.0528,0.05365 0.12424,0.107875 0.10778,-0.07562 0.20923,-0.113547 0.10146,-0.03797 0.19433,-0.03232 0.0492,-0.0079 0.12525,-0.02209 0.0784,-0.01341 0.1828,-0.02347 l 0.68629,0.01607 q 0.0742,0.01886 0.1781,0.03826 0.10501,0.02359 0.24386,0.0368 l 0.0444,0.04712 0.0711,-0.02951 q 0.0191,0.0073 0.0542,0.01438 0.0366,0.01082 0.0897,0.02103 0.0505,0.0098 0.085,0.01921 0.0354,0.01363 0.0591,0.02271 0.0876,0.0336 0.12263,0.08379 0.035,0.05018 0.0224,0.118827 -0.008,0.02043 -0.0167,0.04368 -0.007,0.02713 -0.019,0.05626 -0.0134,0.03491 -0.006,0.241705 -0.0312,0.08159 -0.0859,0.117468 -0.0521,0.03677 -0.12277,0.02979 -0.0363,-0.0044 -0.0991,-0.02465 -0.0603,-0.01991 -0.14308,-0.05168 -0.045,-0.01728 -0.1257,-0.06164 -0.0821,-0.04109 -0.12224,-0.05654 -0.0143,-0.0055 -0.0342,-0.0099 -0.0187,-7.02e-4 -0.0518,-0.0066 -0.0793,-0.02718 -0.19957,-0.05313 -0.11909,-0.02224 -0.27462,-0.04861 -0.092,-0.01524 -0.23317,-0.02929 -0.13888,-0.01312 -0.32479,-0.03103 -0.0328,0.01427 -0.0747,0.02479 -0.0409,0.01444 -0.09,0.02223 l -0.0173,0.01681 q -0.007,0.01747 0.0741,0.125365 0.0821,0.111706 0.25161,0.313772 0.0217,0.02837 0.0579,0.06894 0.0383,0.04151 0.0876,0.09715 0.008,0.02003 0.0256,0.04656 0.017,0.02654 0.0411,0.06259 0.0346,0.03001 0.085,0.08276 0.0528,0.05365 0.12118,0.130044 0.0399,0.0588 0.10011,0.135358 0.0615,0.08036 0.14798,0.180443 0.0131,0.0082 0.11251,0.166825 0.10066,0.162277 0.28625,0.464084 0.0217,0.03514 0.0284,0.06765 0.008,0.03355 -1.8e-4,0.05675 z m -2.33095,-1.171871 q 0.0293,0.0016 0.0459,0.008 0.0175,0.0035 0.0295,0.008 0.0781,0.02996 0.1236,0.0742 0.0477,0.04516 0.0678,0.106259 0.005,0.01529 0.007,0.06914 -2e-4,0.05674 -0.005,0.145435 0.001,0.06348 0.0166,0.10643 0.0174,0.04682 0.0588,0.06607 0.0299,0.02112 0.0624,0.06397 0.0326,0.04257 0.0689,0.09657 0.009,0.01714 0.13647,0.1326 0.12676,0.115482 0.37529,0.331158 0.0763,0.06275 0.12911,0.116389 0.0527,0.05365 0.09,0.09127 0.16544,0.170382 0.2046,0.252292 0.0404,0.08567 0.0694,0.13025 l 0.0118,0.0046 0.15061,-0.04578 0.063,0.154471 -0.0323,0.154741 q -0.0121,0.04553 0.036,0.104046 0.047,0.06152 0.0857,0.179947 -0.004,0.02229 0.003,0.07499 0.008,0.05659 0.0263,0.143765 0.0168,0.07659 0.0191,0.127556 0.002,0.05093 -0.006,0.0743 -0.0302,0.0786 -0.0696,0.103612 -0.0395,0.02492 -0.0819,0.0085 -0.0521,-0.01999 -0.12576,-0.125166 -0.0738,-0.105085 -0.12579,-0.125073 -0.0237,-0.0091 -0.0446,-0.0037 -0.0198,0.0092 -0.0312,0.02475 l -0.28798,0.290507 q -0.0207,0.0255 -0.0959,0.0234 -0.0729,-0.0013 -0.19206,-0.03023 -0.10139,-0.01887 -0.16866,-0.03463 -0.0661,-0.01193 -0.10387,-0.02647 -0.094,-0.05951 -0.19027,-0.119822 -0.14373,-0.02174 -0.30388,-0.04313 -0.13295,-0.07105 -0.26949,-0.146902 -0.0142,-0.0055 -0.0281,-0.0043 -0.0128,0.0049 -0.0208,0.0188 -0.0212,0.04859 -0.0493,0.06465 -0.0291,0.01897 -0.0621,0.0063 -0.0427,-0.01636 -0.062,-0.0438 -0.0179,-0.02366 -0.0211,-0.05823 -0.004,-0.04518 -0.01,-0.07389 -0.007,-0.0259 -0.0128,-0.03819 l -0.16129,-0.01841 -0.31597,-0.181447 q -0.0427,-0.01635 -0.10567,-0.05019 -0.063,-0.03384 -0.14377,-0.08528 -0.0527,-0.05365 -0.0897,-0.08457 -0.037,-0.03092 -0.0511,-0.03637 -0.0458,-8.59e-4 -0.0953,-0.0065 -0.0573,-0.04198 -0.11327,-0.08695 -0.0573,-0.04198 -0.11205,-0.08307 -0.0706,-0.06381 -0.0883,-0.130818 -0.0201,-0.0679 0.007,-0.137781 0.0145,-0.0379 0.0508,-0.04735 0.0326,-0.0074 0.0871,0.01341 0.0237,0.0091 0.0654,0.03474 0.0405,0.02894 0.0643,0.03801 0.0166,0.0062 0.0472,0.01165 0.0306,0.0053 0.0518,0.01347 0.0663,0.02543 0.20506,0.09541 0.14006,0.07377 0.21343,0.10193 0.0458,8.59e-4 0.094,0.0028 0.0417,0.02565 0.0855,0.04619 0.0463,0.02097 0.0886,0.03081 l 0.0472,0.06822 0.23467,0.04657 0.0149,-0.01771 q 0.007,-0.01746 0.008,-0.05702 0.003,-0.03565 -0.002,-0.09431 0.005,-0.03867 0.0212,-0.118866 0.0185,-0.07644 0.0631,-0.199714 -0.001,-0.06064 -6.2e-4,-0.113542 0.0139,-0.07158 0.0223,-0.185289 0.0107,-0.11286 0.0195,-0.2632 -8.8e-4,-0.09042 0.005,-0.164709 0.008,-0.0704 0.0248,-0.114134 0.0135,-0.03492 0.001,-0.06644 -0.0124,-0.03151 -0.047,-0.06152 -0.0346,-0.02293 -0.0874,-0.08366 -0.054,-0.05745 -0.13216,-0.150969 -0.0215,-0.02165 -0.0681,-0.06291 -0.0465,-0.04134 -0.11702,-0.09836 -0.0241,-0.02927 -0.0625,-0.07078 -0.0359,-0.04061 -0.0863,-0.09333 -0.0284,-0.0109 -0.0677,-0.03565 -0.0381,-0.02104 -0.0869,-0.05678 -0.0276,-0.02729 -0.0672,-0.0726 -0.0431,-0.04332 -0.0902,-0.104749 -0.029,-0.03787 -0.0288,-0.08793 -0.002,-0.05093 0.0246,-0.120867 0.019,-0.04949 0.0575,-0.06482 0.0372,-0.01913 0.094,0.0028 0.0615,0.02363 0.13532,0.07197 0.0714,0.04744 0.15155,0.121669 0.10979,0.08893 0.17672,0.148041 0.0669,0.05911 0.10371,0.07653 0.0133,0.01476 0.0492,0.04894 0.036,0.03379 0.0884,0.08076 0.0492,0.04894 0.11592,0.101257 l 0.0245,-0.0071 0.024,-0.09783 q 0.0146,-0.03112 0.0392,-0.0384 0.0245,-0.0071 0.0553,0.0045 0.0166,0.0062 0.0334,0.01922 0.019,0.01379 0.043,0.03652 z m 0.0301,1.224502 q -0.0257,0.06704 -0.05,0.208071 -0.0243,0.141075 -0.05,0.20807 -0.0227,0.03808 -0.0431,0.07705 -0.0163,0.07736 -0.0287,0.152731 -0.0103,0.07627 -0.0263,0.153622 -0.007,0.03099 -4e-4,0.05007 0.008,0.02003 0.0299,0.02819 0.0731,0.02165 0.0993,0.03163 0.045,0.01728 0.0972,0.04375 0.0536,0.0302 0.10703,0.06785 l 0.11991,0.0059 0.0926,0.04891 q 0.0565,0.0084 0.10489,0.0168 0.0495,0.01255 0.0781,0.02996 0.0116,-0.0019 0.0385,-0.0088 0.0269,-0.0064 0.0573,-0.01477 0.0514,-0.0137 0.0992,-0.03208 0.0492,-0.01459 0.098,-0.02921 0.0607,-0.02354 0.0998,-0.06195 0.0392,-0.0384 0.0582,-0.08795 0.0223,-0.05827 -0.0299,-0.148502 -0.0523,-0.09021 -0.186,-0.201699 -0.0156,-0.01567 -0.0592,-0.07946 -0.0446,-0.06062 -0.11137,-0.169731 -0.0856,-0.04619 -0.19468,-0.164898 -0.10688,-0.117895 -0.2409,-0.306331 -0.0107,-0.02095 -0.0217,-0.02836 -0.0118,-0.0046 -0.026,-0.01 -0.0166,-0.0062 -0.0293,-0.0015 -0.0116,0.0089 -0.0194,0.0293 -0.011,0.02914 -0.0311,0.09501 -0.021,0.06887 -0.0321,0.09794 z m -2.00344,1.222895 q 0.008,0.03354 0.0219,0.09189 0.0144,0.06217 0.0301,0.155227 0.009,0.07009 0.0267,0.107201 0.0182,0.03715 0.0492,0.04894 0.11126,0.04269 0.14308,0.05168 0.0309,0.01181 0.0473,0.01817 0.22724,0.08719 0.34946,0.15081 0.12222,0.06362 0.14404,0.09876 l 0.0731,0.02165 0.0233,-0.01109 q 0.026,0.01 0.045,0.01728 0.0203,0.01096 0.0345,0.01643 0.13019,0.04996 0.22046,-0.07917 0.0891,-0.126189 0.19804,-0.08441 0.033,0.01272 0.0492,0.112482 0.0184,0.100671 0.0263,0.284306 0.10814,0.06494 0.2365,0.140882 0.12832,0.07603 0.28171,0.171626 0.0352,1.77e-4 0.0565,0.0016 0.0234,0.0026 0.04,0.009 0.0828,0.03178 0.14252,0.08147 0.0596,0.04969 0.10561,0.114003 0.0231,0.03895 0.0452,0.09429 0.0245,0.05625 0.0496,0.132643 0.0178,0.06022 0.0347,0.09353 0.0194,0.03423 0.0359,0.04061 0.0191,0.0073 0.0385,-0.0088 0.0185,-0.01293 0.0319,-0.04793 0.0413,-0.107773 0.0649,-0.339301 0.0261,-0.230618 0.0664,-0.335483 0.0134,-0.03491 0.0272,-0.04975 0.0126,-0.01185 0.0293,-0.0056 0.0473,0.01817 0.0808,0.03739 0.0334,0.01922 0.0441,0.03365 0.011,0.06133 0.0301,0.09843 0.0172,0.04005 0.0457,0.05093 0.0118,0.0046 0.0195,0.04094 0.006,0.03928 -0.005,0.111757 -0.0414,0.291603 -0.0617,0.444135 -0.0216,0.155447 -0.0247,0.177649 -0.0294,0.175836 -0.0723,0.329849 -0.0405,0.154929 -0.0896,0.283093 -0.006,0.01459 -0.0294,0.05554 -0.0216,0.04186 -0.0223,0.05826 -0.0152,0.06099 -0.0304,0.128702 -0.007,0.01747 -0.0534,0.09651 -0.0443,0.07995 -0.12605,0.222318 -0.008,0.03386 -0.0151,0.07448 -0.0325,0.08449 -0.0749,0.131655 -0.0436,0.05008 -0.0937,0.06758 -0.0227,0.03808 -0.0373,0.07589 -0.0291,0.07571 -0.0881,0.123281 -0.0577,0.05133 -0.13952,0.07345 -0.0771,0.01718 -0.14764,0.01686 -0.0681,6.74e-4 -0.13205,-0.0239 -0.12545,-0.04815 -0.21334,-0.158771 -0.0866,-0.106737 -0.13339,-0.275095 -0.001,-0.0173 -0.0305,-0.175428 -0.0277,-0.15432 -0.0721,-0.448782 -0.004,-0.03168 -0.0167,-0.07659 -0.0122,-0.04493 -0.0221,-0.105379 -0.0242,-0.283368 -0.046,-0.54561 -0.0121,-0.218186 -0.031,-0.336159 -0.0199,-0.117925 -0.0435,-0.127011 -0.0473,-0.01816 -0.10422,0.01678 -0.0545,0.03585 -0.12202,0.126945 -0.0996,0.13221 -0.22559,0.297749 -0.12598,0.165537 -0.28331,0.349109 -0.0126,0.01861 -0.038,0.04221 -0.0264,0.02658 -0.0576,0.05812 -0.17187,0.221441 -0.32896,0.29818 -0.15583,0.08056 -0.30019,0.02515 -0.21068,-0.08082 -0.22005,-0.622477 -0.0102,-0.538736 0.17678,-1.536265 -0.0276,-0.02729 -0.0528,-0.06037 -0.0264,-0.03017 -0.0516,-0.05654 -0.0182,-0.03045 -0.0179,-0.0737 -0.001,-0.04426 0.017,-0.09375 0.0212,-0.05537 0.0667,-0.07467 0.0431,-0.02023 0.11616,-0.0056 0.0255,-0.01698 0.0288,-0.03246 l 0.0282,-0.179667 q 0.0264,-0.02658 0.0495,-0.05117 0.0195,-0.02259 0.0427,-0.04719 0.0254,-0.02369 0.0534,-0.03295 0.0257,-0.01015 0.0494,-0.0011 0.0213,0.0082 0.0288,0.03108 0.004,0.02499 0.009,0.07009 z m 0.77876,1.324811 q 0.0179,-0.04658 -0.035,-0.107028 -0.0515,-0.05655 -0.17158,-0.126041 -0.11386,-0.05708 -0.2301,-0.11508 -0.11387,-0.05708 -0.22773,-0.114171 -0.0525,-0.04017 -0.11428,-0.07725 l -0.0258,-0.0036 -0.0185,0.01972 q -0.0187,0.126506 -0.045,0.280147 -0.038,0.09904 -0.0305,0.121953 0.008,0.02681 -7.9e-4,0.540922 -0.008,0.217699 0.0122,0.335609 0.0224,0.118827 0.0648,0.135185 0.026,0.01 0.0597,-0.0073 0.0337,-0.01716 0.0798,-0.05954 0.12356,-0.109656 0.24407,-0.253892 0.1229,-0.143335 0.24624,-0.323247 0.0172,-0.02351 0.0377,-0.0557 0.0217,-0.02839 0.0469,-0.06556 0.0482,-0.05497 0.076,-0.08451 0.0264,-0.02658 0.0321,-0.04113 z m 1.55837,1.246337 q 0.0426,-0.110705 0.0551,-0.186059 0.0139,-0.07158 -0.002,-0.111603 -0.0103,-0.03059 -0.0543,-0.07765 -0.0454,-0.04425 -0.12898,-0.109691 -0.0476,-0.03166 -0.10928,-0.06196 -0.0628,-0.02732 -0.13965,-0.0536 -0.0493,-0.05564 -0.0784,-0.106999 l -0.0671,-0.0091 q -0.10489,-0.08043 -0.17036,-0.122146 -0.0655,-0.0418 -0.0891,-0.0509 -0.0354,-0.01363 -0.0564,-0.0016 -0.0209,0.01201 -0.0331,0.04404 -0.011,0.02914 5.1e-4,0.156877 0.0103,0.130656 0.04,0.362886 0.0321,0.256247 0.0488,0.389649 0.0178,0.137228 0.0182,0.157425 0.0233,0.05245 0.0455,0.100979 0.0233,0.05244 0.0455,0.100979 0.0308,0.06856 0.0596,0.106427 0.0313,0.03878 0.062,0.05058 0.0568,0.02179 0.11854,-0.0047 0.0617,-0.02645 0.12841,-0.101111 0.0207,-0.0255 0.0686,-0.09397 0.0469,-0.06555 0.11053,-0.174802 0.0582,-0.08796 0.0914,-0.138758 0.033,-0.05082 0.0387,-0.06537 z m -2.40734,0.874105 q 0.0497,0.01907 0.16739,0.03082 0.1177,0.01174 0.17214,0.03263 0.0309,0.0118 0.0926,0.04193 0.063,0.03383 0.0939,0.04564 0.0876,0.0336 0.2683,0.08625 0.18201,0.05645 0.26958,0.09007 0.14675,0.05632 0.37087,0.165773 0.22415,0.109365 0.52203,0.267168 0.10692,0.06105 0.14932,0.127457 0.0413,0.06929 0.0126,0.14503 -0.01,0.02623 -0.0474,0.03858 -0.0385,0.01534 -0.10644,0.02267 -0.0779,0.04707 -0.1461,0.09767 -0.058,0.03793 -0.12485,0.04228 -0.0644,0.0052 -0.14025,-0.02372 -0.0687,-0.02634 -0.18191,-0.113292 -0.11205,-0.08305 -0.17595,-0.107581 -0.12309,-0.04723 -0.20385,-0.09151 -0.0795,-0.04021 -0.11664,-0.07819 l -0.0634,-0.0611 q -0.0755,-0.01557 -0.16755,-0.03751 -0.13167,-0.06018 -0.27717,-0.11976 -0.14439,-0.0554 -0.30942,-0.08532 -0.16266,-0.029 -0.33549,-0.03855 -0.23513,-0.01001 -0.37965,0.04815 -0.14326,0.06199 -0.19133,0.187239 -0.0246,0.06406 -0.0209,0.125591 0.005,0.06536 0.0378,0.134847 0.028,0.05425 0.0596,0.106427 0.0316,0.05217 0.0607,0.103534 0.0233,0.05245 0.0633,0.117932 0.0424,0.06638 0.10274,0.149718 0.12302,0.10398 0.2439,0.220595 0.12093,0.11656 0.2442,0.234062 0.0417,0.03272 0.10619,0.08422 0.0668,0.05241 0.15489,0.112893 0.0972,0.100775 0.28765,0.23403 0.18941,0.136203 0.46432,0.318534 0.0383,0.04151 0.0995,0.101687 0.0599,0.06308 0.14025,0.144008 0.031,0.02528 0.0944,0.08639 0.0634,0.0611 0.15707,0.163854 0.0477,0.04516 0.0527,0.11719 0.008,0.07296 -0.0274,0.163281 -0.0212,0.05537 -0.0894,0.0559 -0.0668,0.0043 -0.18521,-0.04098 -0.22485,-0.08629 -0.52466,-0.281564 -0.29854,-0.191471 -0.6616,-0.497856 -0.0346,-0.02293 -0.0858,-0.06637 -0.0501,-0.03926 -0.11343,-0.09365 -0.044,-0.02006 -0.0985,-0.05453 -0.0536,-0.0302 -0.12247,-0.0771 -0.11467,-0.09745 -0.25387,-0.187608 -0.14031,-0.08726 -0.29692,-0.167392 -0.0237,-0.0091 -0.0665,-0.03892 -0.0442,-0.02658 -0.10355,-0.06984 -0.0596,-0.04289 -0.10939,-0.06876 -0.0499,-0.02558 -0.0949,-0.04284 -0.0672,-0.01612 -0.12741,-0.02887 -0.0478,0.02519 -0.0781,0.03356 -0.029,0.01226 -0.0433,0.0068 -0.0358,-0.03382 -0.0688,-0.09657 -0.0342,-0.05987 -0.0651,-0.148651 -0.037,-0.09445 -0.0445,-0.174146 -0.009,-0.0797 0.0138,-0.135063 0.0201,-0.05247 0.0912,-0.08196 0.0734,-0.02859 0.12077,-0.01036 l 0.0191,0.0073 q 0.0193,0.02075 0.0465,0.04134 0.0118,0.0046 0.0269,7.4e-4 0.0163,-1.63e-4 0.0399,0.0019 0.0103,0.01012 0.0288,0.03108 0.0193,0.02075 0.0454,0.04425 0.014,-0.0011 0.0341,-0.0037 0.0187,7.03e-4 0.0481,-0.0051 0.0121,0.01104 0.0286,0.02439 0.019,0.01379 0.0455,0.03745 0.0191,0.0073 0.0495,0.01256 0.0155,0.0092 0.0442,0.02657 0.0309,0.01831 0.0748,0.04544 0.0358,0.02711 0.0596,0.04289 0.0252,0.01932 0.0393,0.02477 0.0166,0.0062 0.034,0.0033 0.0163,-1.63e-4 0.0257,-0.01015 0.002,-0.01927 -0.0165,-0.0631 -0.0195,-0.04093 -0.0594,-0.09974 -0.0461,-0.07111 -0.0728,-0.121564 -0.0255,-0.04656 -0.0353,-0.06367 l -0.0286,-0.02438 q -0.0575,-0.112215 -0.0931,-0.196133 -0.0333,-0.08295 -0.0448,-0.124054 -0.0191,-0.07081 -0.022,-0.16216 -0.004,-0.08844 0.0136,-0.205313 0.0118,-0.059 0.0154,-0.111022 0.0426,-0.110705 0.0986,-0.186091 0.0561,-0.0754 0.11545,-0.102716 0.23624,-0.113211 0.47807,-0.120662 0.24183,-0.0074 0.49746,0.09063 z m -2.16769,4.431613 -0.26246,0.03295 q -0.0106,-0.05078 0.0244,-0.19786 0.0336,-0.144171 0.10438,-0.371001 -0.10523,-0.334454 -0.14176,-0.642563 -0.0376,-0.305193 -0.006,-0.580222 0.008,-0.0637 0.0207,-0.145803 0.0179,-0.0466 0.0558,-0.09561 0.0354,-0.0499 0.0896,-0.105993 0.0624,-0.05631 0.10999,-0.08143 0.0478,-0.02519 0.0832,-0.01156 0.0711,0.02725 0.10484,0.137174 0.0339,0.109929 0.0301,0.295766 -0.002,0.373475 0.002,0.739112 -0.0179,0.04659 -0.0423,0.06068 -0.0221,0.0149 -0.0457,0.0057 -0.0639,-0.02453 -0.0652,-0.155379 -2.3e-4,-0.127033 -0.0187,-0.134337 -0.0315,0.01126 -0.037,0.02583 -0.0145,0.03789 0.0286,0.201455 0.042,0.166504 0.0668,0.172677 l 0.0601,0.0062 0.008,0.0091 q 0.0254,0.09661 0.0545,0.147939 0.028,0.05425 0.0542,0.06424 0.0592,0.02271 0.18652,-0.01196 0.12736,-0.03468 0.32291,-0.126727 0.15135,-0.06891 0.27903,-0.146898 0.13006,-0.07709 0.23546,-0.15361 0.044,-0.0299 0.0813,-0.04905 0.0395,-0.01822 0.0699,-0.02662 0.0596,-0.01387 0.0983,-0.02251 0.0376,-0.0057 0.0526,-0.01659 0.0198,-0.0092 0.0488,-0.02809 0.0304,-0.01517 0.0696,-0.0401 0.0756,-0.04115 0.18129,-0.04073 0.1046,0.0034 0.24189,0.05608 0.0899,0.03452 0.1616,0.09544 0.0729,0.06474 0.11684,0.148413 0.0109,0.01385 0.0264,0.03017 0.0157,0.01568 0.0348,0.0368 0.0856,0.109722 0.15186,0.318943 0.0686,0.210178 0.11361,0.524827 8.7e-4,0.04036 0.005,0.09906 0.005,0.05857 0.0186,0.134338 0.0104,0.044 0.0136,0.09205 0.002,0.05092 -0.003,0.115562 -0.004,0.08859 -0.0114,0.199488 0.007,0.169225 -0.003,0.276292 -0.009,0.107038 -0.0275,0.156552 -0.0369,0.09613 -0.10211,0.124567 -0.0663,0.03132 -0.15627,-0.0031 -0.0994,-0.03815 -0.1555,-0.08304 -0.0548,-0.04108 -0.0639,-0.08126 -0.0906,-0.429109 -0.12375,-0.682433 -0.0308,-0.252416 0.002,-0.336895 0.0156,-0.0408 0.0435,-0.05677 0.028,-0.01609 0.0658,-0.0015 0.0639,0.02452 0.0894,0.184668 0.0279,0.161048 0.0692,0.173583 l 0.0244,-0.02079 q 0.006,-0.01458 0.007,-0.03766 -4.4e-4,-0.02018 -0.004,-0.04518 -0.0696,-0.320829 -0.15428,-0.503678 -0.0833,-0.179032 -0.18279,-0.217179 -0.0781,-0.02996 -0.17085,-0.02884 -0.0939,0.0039 -0.20371,0.03546 -0.0771,0.02388 -0.2029,0.07586 -0.12458,0.05577 -0.30495,0.143651 -0.25018,0.121215 -0.38635,0.185924 -0.13616,0.06471 -0.14535,0.07455 -0.084,0.03465 -0.16109,0.0518 -0.0772,0.01718 -0.1396,0.0099 -0.0505,-0.0027 -0.11909,-0.02224 -0.0684,-0.01985 -0.1631,-0.05616 -0.0545,-0.02089 -0.0717,-0.004 -0.0149,0.01771 -0.0328,0.06432 -0.007,0.01746 -0.005,0.02805 0.003,0.01435 0.007,0.02975 z m 0.2111,0.101018 q 0.0292,0.0015 0.0459,0.008 0.0175,0.0035 0.0295,0.0079 0.0781,0.02997 0.12359,0.0742 0.0477,0.04516 0.0678,0.10626 0.005,0.01528 0.007,0.06914 -1.9e-4,0.05674 -0.005,0.145428 3e-5,0.06351 0.0166,0.106428 0.0174,0.04673 0.0588,0.06607 0.0299,0.02112 0.0624,0.06397 0.0326,0.04257 0.0688,0.09657 0.009,0.01714 0.13649,0.132601 0.12676,0.115481 0.37527,0.331165 0.0763,0.06275 0.12915,0.116389 0.0527,0.05365 0.0898,0.09128 0.16543,0.170381 0.20461,0.252292 0.0404,0.08567 0.0694,0.13025 l 0.0119,0.0046 0.15062,-0.04578 0.0629,0.154479 -0.0323,0.154731 q -0.012,0.04552 0.036,0.104046 0.047,0.06152 0.0857,0.179948 -0.004,0.0222 0.003,0.07499 0.008,0.05659 0.0263,0.143773 0.0168,0.07659 0.0191,0.127556 0.002,0.05092 -0.006,0.07429 -0.0302,0.0786 -0.0696,0.103613 -0.0395,0.02502 -0.082,0.0086 -0.0521,-0.02 -0.12575,-0.125166 -0.0737,-0.105182 -0.12576,-0.125165 -0.0237,-0.0091 -0.0446,-0.0037 -0.0198,0.0092 -0.0312,0.02475 l -0.288,0.290514 q -0.0206,0.0255 -0.0959,0.0234 -0.0729,-0.0013 -0.19206,-0.03022 -0.1014,-0.01887 -0.16866,-0.03463 -0.066,-0.01195 -0.10388,-0.02647 -0.094,-0.05951 -0.19026,-0.119821 -0.14373,-0.02174 -0.30388,-0.04313 -0.13294,-0.07105 -0.26949,-0.146904 -0.0143,-0.0055 -0.0281,-0.0043 -0.0128,0.0049 -0.0208,0.0188 -0.0212,0.04859 -0.0493,0.06465 -0.029,0.01896 -0.0621,0.0063 -0.0427,-0.01636 -0.062,-0.04378 -0.0179,-0.02365 -0.0211,-0.05823 -0.004,-0.04518 -0.01,-0.07389 -0.007,-0.0259 -0.0129,-0.03819 l -0.16129,-0.01842 -0.31598,-0.181448 q -0.0427,-0.01635 -0.10566,-0.0502 -0.063,-0.03383 -0.14378,-0.08526 -0.0528,-0.05365 -0.0897,-0.08458 -0.037,-0.03092 -0.0512,-0.03637 -0.0458,-8.59e-4 -0.0953,-0.0065 -0.0573,-0.04198 -0.11326,-0.08695 -0.0573,-0.04198 -0.11202,-0.08315 -0.0706,-0.06381 -0.0883,-0.130818 -0.0201,-0.0679 0.007,-0.13779 0.0145,-0.0379 0.0508,-0.04735 0.0326,-0.0074 0.0871,0.01341 0.0237,0.0091 0.0654,0.03474 0.0405,0.02893 0.0643,0.03801 0.0166,0.0062 0.0472,0.01166 0.0306,0.0053 0.0518,0.01347 0.0662,0.02543 0.20507,0.0954 0.14006,0.07377 0.21342,0.101932 0.0458,8.59e-4 0.094,0.0028 0.0418,0.02565 0.0855,0.04619 0.0462,0.02098 0.0886,0.03081 l 0.0472,0.06822 0.23468,0.04657 0.0149,-0.01771 q 0.007,-0.01746 0.008,-0.05701 0.003,-0.03564 -0.002,-0.09431 0.005,-0.03858 0.0212,-0.118867 0.0185,-0.07645 0.0631,-0.199705 -0.001,-0.06063 -6.2e-4,-0.113542 0.0139,-0.07158 0.0223,-0.185299 0.0107,-0.11285 0.0196,-0.2632 -8.9e-4,-0.09042 0.005,-0.16471 0.008,-0.0704 0.0248,-0.114132 0.0135,-0.03492 0.001,-0.06644 -0.0124,-0.03151 -0.047,-0.06152 -0.0346,-0.02294 -0.0874,-0.08366 -0.0541,-0.05745 -0.13214,-0.150969 -0.0216,-0.02165 -0.0681,-0.06291 -0.0465,-0.04134 -0.11704,-0.09837 -0.0241,-0.02927 -0.0624,-0.07076 -0.0359,-0.0406 -0.0863,-0.09324 -0.0285,-0.0109 -0.0677,-0.03566 -0.0381,-0.02103 -0.0868,-0.05678 -0.0276,-0.02729 -0.0672,-0.0726 -0.0431,-0.04332 -0.0901,-0.104752 -0.0289,-0.03787 -0.0288,-0.08793 -0.002,-0.05092 0.0246,-0.120878 0.019,-0.04949 0.0575,-0.06481 0.0372,-0.01913 0.094,0.0028 0.0615,0.02363 0.13532,0.07197 0.0714,0.04743 0.15152,0.121669 0.10981,0.08893 0.17673,0.148043 0.0669,0.05911 0.10371,0.07653 0.0133,0.01475 0.0492,0.04894 0.0359,0.03382 0.0884,0.08077 0.0492,0.04894 0.11593,0.101254 l 0.0245,-0.0071 0.0239,-0.09772 q 0.0146,-0.03112 0.0392,-0.0384 0.0244,-0.0071 0.0553,0.0045 0.0166,0.0062 0.0334,0.01922 0.019,0.01378 0.043,0.03653 z m 0.0301,1.224504 q -0.0257,0.06702 -0.05,0.20807 -0.0243,0.141076 -0.05,0.208072 -0.0228,0.03809 -0.0431,0.07706 -0.0163,0.07736 -0.0287,0.15272 -0.0103,0.07628 -0.0264,0.153648 -0.007,0.03099 -3.9e-4,0.05007 0.008,0.02003 0.0299,0.02819 0.0731,0.02165 0.0993,0.03163 0.045,0.01728 0.0972,0.04375 0.0536,0.0302 0.10702,0.06784 l 0.11993,0.006 0.0925,0.04891 q 0.0565,0.0084 0.10489,0.0168 0.0495,0.01256 0.0781,0.02996 0.0116,-0.0019 0.0385,-0.0088 0.0269,-0.0064 0.0574,-0.01477 0.0514,-0.0137 0.0992,-0.03208 0.0492,-0.01459 0.098,-0.0292 0.0607,-0.02353 0.0998,-0.06195 0.0392,-0.03841 0.0581,-0.08796 0.0224,-0.05827 -0.0299,-0.148492 -0.0523,-0.09022 -0.18599,-0.201708 -0.0157,-0.01568 -0.0592,-0.07946 -0.0446,-0.06061 -0.11138,-0.169728 -0.0855,-0.04619 -0.1947,-0.164899 -0.10687,-0.117896 -0.24089,-0.306323 -0.0107,-0.02095 -0.0217,-0.02836 -0.0119,-0.0046 -0.026,-0.01 -0.0166,-0.0062 -0.0293,-0.0015 -0.0116,0.0089 -0.0193,0.02929 -0.011,0.02914 -0.031,0.095 -0.021,0.06887 -0.0321,0.09794 z"
           id="text2-4-3"
           style="font-size:42.6667px;font-family:Mistral;-inkscape-font-specification:Mistral;text-align:center;text-anchor:middle;white-space:pre;shape-padding:0.982353;fill:#000000;fill-opacity:1;stroke:none;stroke-width:0.510292;stroke-linecap:round;stroke-linejoin:round;stroke-dasharray:none;stroke-opacity:1"
           aria-label="HAYABUSA"
           transform="matrix(-3.7883949,0.04008803,-0.00419192,-3.7484052,1201.97,524.08414)" /></g></g></g></svg>
